<svg xmlns="http://www.w3.org/2000/svg" viewBox="0 0 256 256" focusable="false" color="var(--token-9f71d0e3-d0a3-40a1-b198-ab1154ca2ba8, rgb(113, 113, 122)) /* {&quot;name&quot;:&quot;Gray/50 (Body Default)&quot;} */" style="user-select: none; width: 100%; height: 100%; display: inline-block; fill: var(--token-9f71d0e3-d0a3-40a1-b198-ab1154ca2ba8, rgb(113, 113, 122)); color: var(--token-9f71d0e3-d0a3-40a1-b198-ab1154ca2ba8, rgb(113, 113, 122)); flex-shrink: 0;"><g color="var(--token-9f71d0e3-d0a3-40a1-b198-ab1154ca2ba8, rgb(113, 113, 122)) /* {&quot;name&quot;:&quot;Gray/50 (Body Default)&quot;} */" weight="regular"><path d="M72,60A12,12,0,1,1,60,48,12,12,0,0,1,72,60Zm56-12a12,12,0,1,0,12,12A12,12,0,0,0,128,48Zm68,24a12,12,0,1,0-12-12A12,12,0,0,0,196,72ZM60,116a12,12,0,1,0,12,12A12,12,0,0,0,60,116Zm68,0a12,12,0,1,0,12,12A12,12,0,0,0,128,116Zm68,0a12,12,0,1,0,12,12A12,12,0,0,0,196,116ZM60,184a12,12,0,1,0,12,12A12,12,0,0,0,60,184Zm68,0a12,12,0,1,0,12,12A12,12,0,0,0,128,184Zm68,0a12,12,0,1,0,12,12A12,12,0,0,0,196,184Z"/></g></svg>