<svg xmlns="http://www.w3.org/2000/svg" viewBox="0 0 256 256" focusable="false" color="var(--token-b96ecbd4-79d4-47fc-b465-45a56edcbbb9, rgb(82, 82, 91)) /* {&quot;name&quot;:&quot;Gray/60 (Icon Default)&quot;} */" style="user-select: none; width: 100%; height: 100%; display: inline-block; fill: var(--token-b96ecbd4-79d4-47fc-b465-45a56edcbbb9, rgb(82, 82, 91)); color: var(--token-b96ecbd4-79d4-47fc-b465-45a56edcbbb9, rgb(82, 82, 91)); flex-shrink: 0;"><g color="var(--token-b96ecbd4-79d4-47fc-b465-45a56edcbbb9, rgb(82, 82, 91)) /* {&quot;name&quot;:&quot;Gray/60 (Icon Default)&quot;} */" weight="regular"><path d="M72,60A12,12,0,1,1,60,48,12,12,0,0,1,72,60Zm56-12a12,12,0,1,0,12,12A12,12,0,0,0,128,48Zm68,24a12,12,0,1,0-12-12A12,12,0,0,0,196,72ZM60,116a12,12,0,1,0,12,12A12,12,0,0,0,60,116Zm68,0a12,12,0,1,0,12,12A12,12,0,0,0,128,116Zm68,0a12,12,0,1,0,12,12A12,12,0,0,0,196,116ZM60,184a12,12,0,1,0,12,12A12,12,0,0,0,60,184Zm68,0a12,12,0,1,0,12,12A12,12,0,0,0,128,184Zm68,0a12,12,0,1,0,12,12A12,12,0,0,0,196,184Z"/></g></svg>