<svg xmlns="http://www.w3.org/2000/svg" viewBox="0 0 256 256" focusable="false" color="var(--token-b96ecbd4-79d4-47fc-b465-45a56edcbbb9, rgb(82, 82, 91)) /* {&quot;name&quot;:&quot;Gray/60 (Icon Default)&quot;} */" style="user-select: none; width: 100%; height: 100%; display: inline-block; fill: var(--token-b96ecbd4-79d4-47fc-b465-45a56edcbbb9, rgb(82, 82, 91)); color: var(--token-b96ecbd4-79d4-47fc-b465-45a56edcbbb9, rgb(82, 82, 91)); flex-shrink: 0;"><g color="var(--token-b96ecbd4-79d4-47fc-b465-45a56edcbbb9, rgb(82, 82, 91)) /* {&quot;name&quot;:&quot;Gray/60 (Icon Default)&quot;} */" weight="regular"><path d="M223.68,66.15,135.68,18a15.88,15.88,0,0,0-15.36,0l-88,48.17a16,16,0,0,0-8.32,14v95.64a16,16,0,0,0,8.32,14l88,48.17a15.88,15.88,0,0,0,15.36,0l88-48.17a16,16,0,0,0,8.32-14V80.18A16,16,0,0,0,223.68,66.15ZM128,32l80.34,44-29.77,16.3-80.35-44ZM128,120,47.66,76l33.9-18.56,80.34,44ZM40,90l80,43.78v85.79L40,175.82Zm176,85.78h0l-80,43.79V133.82l32-17.51V152a8,8,0,0,0,16,0V107.55L216,90v85.77Z"/></g></svg>