<svg xmlns="http://www.w3.org/2000/svg" viewBox="0 0 256 256" focusable="false" color="var(--token-b96ecbd4-79d4-47fc-b465-45a56edcbbb9, rgb(82, 82, 91)) /* {&quot;name&quot;:&quot;Gray/60 (Icon Default)&quot;} */" style="user-select: none; width: 100%; height: 100%; display: inline-block; fill: var(--token-b96ecbd4-79d4-47fc-b465-45a56edcbbb9, rgb(82, 82, 91)); color: var(--token-b96ecbd4-79d4-47fc-b465-45a56edcbbb9, rgb(82, 82, 91)); flex-shrink: 0;"><g color="var(--token-b96ecbd4-79d4-47fc-b465-45a56edcbbb9, rgb(82, 82, 91)) /* {&quot;name&quot;:&quot;Gray/60 (Icon Default)&quot;} */" weight="regular"><path d="M128,64a40,40,0,1,0,40,40A40,40,0,0,0,128,64Zm0,64a24,24,0,1,1,24-24A24,24,0,0,1,128,128Zm0-112a88.1,88.1,0,0,0-88,88c0,31.4,14.51,64.68,42,96.25a254.19,254.19,0,0,0,41.45,38.3,8,8,0,0,0,9.18,0A254.19,254.19,0,0,0,174,200.25c27.45-31.57,42-64.85,42-96.25A88.1,88.1,0,0,0,128,16Zm0,206c-16.53-13-72-60.75-72-118a72,72,0,0,1,144,0C200,161.23,144.53,209,128,222Z"/></g></svg>